<?xml version="1.0" encoding="iso-8859-1"?>
<!-- Generator: Adobe Illustrator 18.0.0, SVG Export Plug-In . SVG Version: 6.00 Build 0)  -->
<!DOCTYPE svg PUBLIC "-//W3C//DTD SVG 1.1//EN" "http://www.w3.org/Graphics/SVG/1.1/DTD/svg11.dtd">
<svg version="1.1" id="Capa_1" xmlns="http://www.w3.org/2000/svg" xmlns:xlink="http://www.w3.org/1999/xlink" x="0px" y="0px"
	 viewBox="0 0 54.144 54.144" style="enable-background:new 0 0 54.144 54.144;" xml:space="preserve">
<g>
	<path d="M52.999,27.074c-0.553,0-1,0.447-1,1v4c0,0.553,0.447,1,1,1s1-0.447,1-1v-4C53.999,27.522,53.552,27.074,52.999,27.074z"/>
	<path d="M52.999,35.074c-0.553,0-1,0.447-1,1v2c0,0.553,0.447,1,1,1s1-0.447,1-1v-2C53.999,35.522,53.552,35.074,52.999,35.074z"/>
	<path d="M52.999,41.074c-0.553,0-1,0.447-1,1v1c0,0.553,0.447,1,1,1s1-0.447,1-1v-1C53.999,41.522,53.552,41.074,52.999,41.074z"/>
	<path d="M52.289,46.37c-0.19,0.181-0.29,0.44-0.29,0.7s0.1,0.521,0.29,0.71c0.189,0.19,0.45,0.29,0.71,0.29s0.52-0.1,0.71-0.29
		c0.18-0.189,0.29-0.439,0.29-0.71c0-0.26-0.11-0.52-0.29-0.7C53.339,46.001,52.678,45.991,52.289,46.37z"/>
	<path d="M20.556,42.355c-3.314,3.313-8.706,3.315-12.021,0c-0.391-0.391-1.023-0.391-1.414,0s-0.391,1.023,0,1.414
		c1.983,1.983,4.62,3.075,7.425,3.075c2.804,0,5.44-1.092,7.424-3.075c0.391-0.391,0.391-1.023,0-1.414S20.947,41.964,20.556,42.355
		z"/>
	<path d="M37.401,4.752c-4.459-4.459-11.638-4.9-16.344-1.006c-2.646,2.19-4.19,5.278-4.351,8.696
		c-0.158,3.372,1.116,6.672,3.496,9.052l0.182,0.182c-5.778-1.688-12.091,0.005-16.299,4.651c-5.459,6.03-5.446,15.466,0.03,21.48
		c2.981,3.275,7.054,5.136,11.467,5.239c0.13,0.003,0.26,0.004,0.389,0.004c4.271,0,8.271-1.655,11.303-4.687
		c4.883-4.883,6.052-12.395,2.96-18.516l5.577-5.577c3.842-3.843,10.087-3.895,13.976-0.063l0.815,0.827l3.542-3.542L37.401,4.752z
		 M50.588,22.223c-4.645-4.028-11.754-3.803-16.19,0.635l-6.64,6.64l0.375,0.662c3.093,5.456,2.158,12.36-2.272,16.791
		c-2.732,2.733-6.346,4.199-10.23,4.097c-3.861-0.091-7.426-1.719-10.035-4.585c-4.791-5.263-4.802-13.518-0.026-18.793
		c2.748-3.034,6.521-4.63,10.361-4.63c2.356,0,4.738,0.602,6.923,1.84l0.661,0.375l1.641-1.637l-3.537-3.537
		c-1.982-1.983-3.044-4.732-2.912-7.544c0.134-2.849,1.422-5.423,3.628-7.249c3.92-3.245,9.917-2.856,13.654,0.879l15.329,15.328
		L50.588,22.223z"/>
	<path d="M34.517,7.525c-2.936-2.937-7.534-3.307-10.696-0.865c-1.832,1.414-2.967,3.542-3.113,5.837
		c-0.147,2.298,0.7,4.547,2.324,6.17l3.814,3.816c0.313,0.311,0.724,0.467,1.135,0.467s0.821-0.156,1.135-0.467l9.042-9.043
		c0.304-0.304,0.472-0.707,0.472-1.137c0-0.431-0.168-0.834-0.471-1.136L34.517,7.525z M27.981,20.788l-3.535-3.536
		c-1.218-1.217-1.853-2.904-1.742-4.629c0.111-1.746,0.942-3.303,2.34-4.382c1.039-0.803,2.288-1.195,3.553-1.195
		c1.616,0,3.257,0.643,4.507,1.893l3.362,3.363L27.981,20.788z"/>
</g>
<g>
</g>
<g>
</g>
<g>
</g>
<g>
</g>
<g>
</g>
<g>
</g>
<g>
</g>
<g>
</g>
<g>
</g>
<g>
</g>
<g>
</g>
<g>
</g>
<g>
</g>
<g>
</g>
<g>
</g>
</svg>
